<?xml version="1.0" encoding="UTF-8" standalone="no"?>
<!-- Created with Inkscape (http://www.inkscape.org/) -->

<svg
   version="1.1"
   id="svg1"
   width="793.70081"
   height="793.70081"
   viewBox="0 0 793.70081 793.70081"
   sodipodi:docname="Logo EticaImprese.pdf"
   inkscape:version="1.4 (e7c3feb1, 2024-10-09)"
   xmlns:inkscape="http://www.inkscape.org/namespaces/inkscape"
   xmlns:sodipodi="http://sodipodi.sourceforge.net/DTD/sodipodi-0.dtd"
   xmlns="http://www.w3.org/2000/svg"
   xmlns:svg="http://www.w3.org/2000/svg">
  <defs
     id="defs1" />
  <sodipodi:namedview
     id="namedview1"
     pagecolor="#ffffff"
     bordercolor="#666666"
     borderopacity="1.0"
     inkscape:showpageshadow="2"
     inkscape:pageopacity="0.0"
     inkscape:pagecheckerboard="0"
     inkscape:deskcolor="#d1d1d1"
     inkscape:zoom="0.032757936"
     inkscape:cx="381.58692"
     inkscape:cy="396.8504"
     inkscape:window-width="1104"
     inkscape:window-height="245"
     inkscape:window-x="0"
     inkscape:window-y="23"
     inkscape:window-maximized="0"
     inkscape:current-layer="layer-Pr12">
    <inkscape:page
       x="0"
       y="0"
       inkscape:label="1"
       id="page1"
       width="793.70081"
       height="793.70081"
       margin="0"
       bleed="0" />
  </sodipodi:namedview>
  <g
     id="layer-Pr12"
     inkscape:groupmode="layer"
     inkscape:label="Livello 1">
    <path
       id="path1"
       d="m 317.7283,255.1105 -0.002,-0.001 c 0.3725,-0.5635 0.7237,-1.1429 1.0513,-1.7368 l 0.006,-0.011 0.085,-0.1562 0.0128,-0.0235 0.0774,-0.1446 c 0.1482,-0.2789 0.2914,-0.5621 0.4297,-0.8473 l 0.005,-0.01 0.0782,-0.1638 0.003,-0.008 0.0791,-0.1684 0.0593,-0.1284 0.0204,-0.0459 0.0181,-0.0388 0.1381,-0.3113 0.0734,-0.1689 0.003,-0.007 0.0749,-0.1769 0.002,-0.006 0.0709,-0.1715 0.008,-0.0195 0.0644,-0.1588 0.0127,-0.0328 0.0579,-0.146 0.0181,-0.0465 0.0513,-0.1335 0.023,-0.0596 0.0451,-0.1204 0.0274,-0.0734 0.0394,-0.1078 0.0312,-0.087 0.0338,-0.0944 0.0357,-0.1009 0.0283,-0.0813 0.0394,-0.1148 0.023,-0.0681 0.0434,-0.1287 0.0181,-0.0547 0.0465,-0.1431 0.0133,-0.0409 0.0496,-0.1573 0.0615,-0.1995 0.004,-0.0134 0.0553,-0.1859 v -3e-4 l 0.0544,-0.1865 0.004,-0.0136 0.0488,-0.1732 0.007,-0.0281 0.0436,-0.1596 0.0117,-0.0422 0.0385,-0.1463 0.0145,-0.0564 0.003,-0.0113 c 0.066,-0.258 0.1281,-0.5173 0.1865,-0.7778 l 0.006,-0.0275 0.0173,-0.0771 0.0275,-0.1287 c 0.0439,-0.2058 0.0856,-0.4128 0.1242,-0.6208 l 0.004,-0.0204 0.034,-0.188 0.001,-0.007 0.0334,-0.1939 0.001,-0.008 c 0.165,-0.9766 0.273,-1.9715 0.3218,-2.9823 v 0 c 0.0193,-0.398 0.0289,-0.7983 0.0289,-1.2008 0,-1.7053 -0.1715,-3.3701 -0.4983,-4.9791 h -9e-4 c -0.6576,-3.2394 -1.944,-6.2506 -3.7264,-8.9005 l 0.003,-2e-4 c -0.3846,-0.5726 -0.792,-1.1288 -1.2214,-1.6657 l -0.004,0.002 c -0.5777,-0.7243 -1.1945,-1.4148 -1.8487,-2.0673 -4.4416,-4.4427 -10.5543,-7.2136 -17.3129,-7.2947 l -0.008,-0.004 -0.002,0.004 -0.2892,-0.002 c -0.1542,0 -0.3058,0.003 -0.4598,0.005 l -0.004,-0.007 -0.0139,0.007 c -2.5061,0.0468 -4.9241,0.4652 -7.1972,1.2002 l -0.006,0.002 c -3.7888,1.2271 -7.181,3.3375 -9.9314,6.0888 -0.6543,0.6525 -1.2716,1.343 -1.8505,2.0673 l -8e-4,-0.001 -0.0542,0.0671 -0.006,0.008 c -0.1605,0.2021 -0.3178,0.4068 -0.4723,0.6143 l -0.01,0.013 -0.01,0.0127 c -0.0893,0.1208 -0.1783,0.2427 -0.2656,0.3657 l -0.0188,0.0264 -0.0192,0.0258 -6e-4,0.002 -0.0181,0.0249 -0.0182,0.0258 -0.0745,0.1063 -0.0185,0.0258 -0.0184,0.0269 -0.006,0.009 -0.0122,0.0179 -0.0187,0.0263 -0.0913,0.1333 -0.0184,0.0266 -0.0111,0.0164 -0.007,0.0105 -0.0178,0.0267 -0.0179,0.0266 -0.0181,0.027 8e-4,2e-4 c -2.4579,3.6556 -3.9722,7.9991 -4.1944,12.68 h -0.002 c -0.0187,0.3974 -0.0286,0.7976 -0.0286,1.1996 0,1.7059 0.1718,3.3715 0.4989,4.9805 h 10e-4 c 0.4638,2.2875 1.2416,4.4614 2.2859,6.4746 l 0.0683,0.1309 0.008,0.0159 0.0612,0.1145 0.0695,0.1304 0.0354,0.0652 0.0357,0.0644 0.0715,0.1292 0.0232,0.0417 0.0488,0.087 0.0734,0.1284 0.01,0.0179 0.0635,0.11 0.0714,0.1224 0.003,0.005 0.0754,0.1267 0.0592,0.0986 0.0936,0.1536 0.0456,0.0752 0.0315,0.0504 c 0.6497,1.0452 1.3739,2.039 2.1662,2.9738 v 0.002 c 0.1862,0.22 0.3761,0.436 0.57,0.6495 l 0.0315,0.0345 c 0.2585,0.2838 0.5244,0.5613 0.796,0.8323 1.4717,1.4726 3.1286,2.7615 4.9314,3.8313 l 0.0448,0.0255 c 0.1599,0.0947 0.3214,0.1871 0.4839,0.2787 l 0.0218,0.0124 c 0.2608,0.1457 0.5238,0.2866 0.79,0.4227 l 0.2702,0.136 0.244,0.1188 0.0269,0.0142 0.2733,0.1292 0.1996,0.0913 0.1417,0.0644 0.3747,0.1641 0.1653,0.0703 0.2251,0.0947 0.004,10e-4 0.2826,0.1125 0.2758,0.1075 0.008,0.004 0.2852,0.1058 0.006,0.002 0.218,0.0774 0.063,0.023 0.2885,0.1001 0.1375,0.0453 0.2772,0.0899 0.1673,0.0535 0.2934,0.0893 0.0541,0.0156 0.2112,0.0618 0.3864,0.1063 0.151,0.0403 0.3887,0.0983 0.1604,0.0374 0.3594,0.0831 0.0794,0.0179 3e-4,2e-4 0.0975,0.0205 0.3334,0.0688 0.163,0.0318 0.4195,0.0771 c 1.3997,0.2438 2.8392,0.3713 4.3089,0.3713 6.8772,0 13.1046,-2.7878 17.612,-7.2955 0.695,-0.6948 1.3493,-1.4312 1.9584,-2.2037 h 0.003 c 0.4246,-0.5383 0.8274,-1.0941 1.2069,-1.6681 z m -1.9601,-0.6064 c -2.0393,-0.6052 -4.195,-1.1695 -6.3978,-1.6478 1.345,-3.4891 1.8618,-7.0973 1.9457,-10.5069 h 8.5595 c -0.1899,4.5108 -1.6812,8.684 -4.1074,12.1547 z m 4.1074,-14.1137 h -8.5567 c -0.0745,-3.4605 -0.591,-7.13 -1.9658,-10.6741 2.1728,-0.4717 4.3016,-1.0279 6.3153,-1.6231 2.486,3.4991 4.0147,7.7249 4.2072,12.2972 z m -5.504,-13.9561 c -1.8684,0.5372 -3.8251,1.0333 -5.8116,1.4536 -1.6022,-3.3202 -4.0377,-6.4604 -7.6618,-9.1272 4.7546,0.8246 9.0071,3.1118 12.2766,6.3819 0.4155,0.4153 0.8146,0.8458 1.1968,1.2917 z m -21.5995,-7.6342 c -3.5821,2.6498 -5.9972,5.7636 -7.5914,9.055 -1.9336,-0.4148 -3.8359,-0.8978 -5.6566,-1.4208 0.3821,-0.4459 0.7815,-0.877 1.1974,-1.2917 3.2173,-3.2182 7.3871,-5.4845 12.0506,-6.3425 z m -14.5445,9.2933 c 1.9655,0.5817 4.039,1.1246 6.1574,1.5889 -1.3853,3.5543 -1.9043,7.236 -1.9797,10.7081 h -8.3849 c 0.193,-4.5723 1.7215,-8.7976 4.2072,-12.297 z m -4.2072,14.256 h 8.388 c 0.0845,3.4212 0.6038,7.0413 1.9593,10.541 -2.1478,0.4716 -4.2497,1.023 -6.2402,1.6137 -2.4262,-3.4707 -3.9172,-7.6442 -4.1071,-12.1547 z m 5.3875,13.8172 c 1.8488,-0.5332 3.784,-1.0272 5.7515,-1.4485 1.6251,3.3741 4.1136,6.5637 7.8318,9.2594 -4.7514,-0.8257 -9.0025,-3.1124 -12.2697,-6.3805 -0.4578,-0.4581 -0.8963,-0.9357 -1.3136,-1.4304 z m 21.2732,7.8492 c 3.7598,-2.7139 6.2662,-5.929 7.901,-9.3314 2.0194,0.4286 4.0093,0.9354 5.9065,1.4828 -0.4178,0.4952 -0.8557,0.9717 -1.3138,1.4298 -3.3194,3.3191 -7.6516,5.6268 -12.4937,6.4188 z m -2.7528,-0.5105 v -10.177 c 2.8044,0.0695 5.7515,0.4246 8.667,0.9621 -1.7343,3.4135 -4.4677,6.6101 -8.667,9.2149 z m 0,-12.1369 v -9.019 h 11.4274 c -0.0854,3.3001 -0.595,6.7817 -1.9302,10.109 -3.1909,-0.6101 -6.4298,-1.0168 -9.4972,-1.09 z m 0,-10.978 v -9.1916 c 3.0606,-0.0723 6.2924,-0.4776 9.4785,-1.0862 1.3658,3.382 1.8757,6.9253 1.9517,10.2778 z m 0,-11.1515 v -10.1256 c 4.1811,2.5909 6.9086,5.7713 8.644,9.1684 -2.908,0.5352 -5.8467,0.8889 -8.644,0.9572 z m -1.961,-10.2319 v 10.2319 c -2.8465,-0.0691 -5.841,-0.4351 -8.8007,-0.9859 1.7592,-3.431 4.5349,-6.643 8.8007,-9.246 z m 0,12.1915 v 9.1919 h -11.6016 c 0.076,-3.3624 0.5902,-6.9174 1.9641,-10.3087 3.238,0.6259 6.5262,1.0426 9.6375,1.1168 z m 0,11.1509 v 9.0202 c -3.1178,0.074 -6.4122,0.4926 -9.6562,1.1194 -1.3442,-3.3358 -1.8578,-6.8295 -1.9426,-10.1396 z m 0,10.9789 v 10.2821 c -4.2837,-2.6144 -7.0647,-5.8427 -8.8236,-9.2911 2.9664,-0.5533 5.9697,-0.9207 8.8236,-0.991"
       style="fill:#cda339;fill-opacity:1;fill-rule:evenodd;stroke:none"
       transform="matrix(1.3333333,0,0,-1.3333333,0,793.7008)" />
    <path
       id="path2"
       d="M 151.2156,243.3155 H 266.419 v -3.8942 H 151.2156 Z"
       style="fill:#cda339;fill-opacity:1;fill-rule:evenodd;stroke:none"
       transform="matrix(1.3333333,0,0,-1.3333333,0,793.7008)" />
    <path
       id="path3"
       d="m 327.4767,243.3155 h 115.2031 v -3.8942 H 327.4767 Z"
       style="fill:#cda339;fill-opacity:1;fill-rule:evenodd;stroke:none"
       transform="matrix(1.3333333,0,0,-1.3333333,0,793.7008)" />
    <path
       id="path4"
       d="m 454.2386,372.2009 c 0.2535,0.047 0.5698,-0.1347 0.4593,-0.4198 -0.4788,-0.4281 -0.8666,-0.0808 -0.4593,0.4198 z m -41.2911,-82.9758 c 0.2432,-0.2667 -0.6398,-0.2718 -0.7688,-0.2171 -0.1244,0.631 0.9386,1.4845 0.7688,0.2171 z m 0.6248,0.2135 c 0.0385,-0.5763 0.1913,-1.5001 -0.5378,-0.9485 0.1837,0.2016 0.0785,1.3751 0.5378,0.9485 z m 40.9824,81.6794 c 0.5726,1.1288 1.2203,0.1015 0.9431,0.3022 -0.8079,0.5876 -2.0242,-3.001 -0.9431,-0.3022 z m -27.1862,-50.8104 c -0.415,-0.5542 0.2284,-1.3178 -0.777,-1.5911 0.9031,-0.3212 0.5879,-1.457 -0.1644,-0.6882 -0.9559,1.7744 -0.7617,-0.3722 -1.0364,0.6154 -0.7778,-0.3215 -1.2169,-0.5426 -2.2407,-0.4357 -2.1958,1.7223 1.8164,1.4349 2.5582,1.7263 0.2503,-1.6393 1.1926,2.2246 1.6603,0.3733 z m -9.2747,-43.6657 c 1.8218,-2.7074 -4.3398,-4.8204 -1.8111,-7.9492 2.1561,-1.2606 -0.5692,-2.528 0.7042,-3.8523 -0.3923,-0.0493 -0.5332,-0.6585 -0.3524,-0.9797 -0.5785,-3.9773 -0.6519,-8.9952 -1.7685,-12.3128 0.6434,-0.5295 -0.7081,-1.8604 -0.8337,-1.7212 0.1675,0.6777 -0.6114,0.3566 -0.9147,0.2392 -2.1305,2.1441 -2.4897,2.1181 -4.3583,1.2841 -0.5423,0.4672 -1.8164,2.0387 -1.6506,0.8484 1.3714,-0.5088 0.6797,-0.4787 0.074,-1.383 -0.4275,-1.1384 0.557,-2.1974 -0.1576,-3.2213 -3.9966,-4.4169 -2.9866,1.0746 -5.4176,-2.1702 0.4105,0.769 -0.4745,0.1993 -0.4975,0.6375 0.7634,1.0539 -0.5754,0.8496 -0.3929,1.9724 0.0658,1.0513 -0.718,0.5751 -0.9008,0.9952 0.3155,0.7574 -0.3373,0.1381 -0.3835,0.2979 -0.1378,0.2084 -0.1704,1.0072 -0.5678,0.6245 -0.1752,1.9165 -1.8179,1.1477 -0.1432,3.3763 -2.0418,2.7114 1.0741,3.8469 0.2495,6.5883 -0.1503,2.5084 -0.2112,1.967 1.2611,0.6883 0.9536,0.1315 -0.3798,0.1718 -0.4819,0.4708 0.2293,1.3635 1.008,0.9213 0.582,2.9132 -0.7379,1.2931 -2.1014,0.1522 -1.2742,0.3693 0.1627,0.1576 -0.6392,-1.3439 -0.2605,-0.4033 -1.3051,0.5828 0.1431,2.7102 -0.8589,2.9168 2.2408,0.6687 1.3269,1.3051 1.1738,3.3956 0.9349,2.7284 -1.1041,1.8281 -1.0837,2.9078 0.4703,1.1764 -0.25,2.1286 -0.8498,2.9781 -0.2727,2.2637 -0.8875,0.5726 -1.8218,0.8847 0.6483,1.2855 -0.5556,0.6738 -0.4867,-0.2667 -0.7155,1.0252 0.3376,1.4428 0.5077,2.3913 -1.5821,0.3305 -0.1157,2.3717 0.1737,3.2771 0.459,1.1021 -0.5839,0.8433 -0.3897,1.5041 0.0969,0.1717 0.3591,0.9433 0.4314,0.3421 0.2526,-2.2453 4.7047,-3.8392 6.1021,-1.262 2.6337,0.527 3.7114,2.1884 5.1928,4.2557 3.4878,0.3812 1.141,1.9321 3.2057,2.6631 0.987,-0.8509 0.1945,-0.3552 0.6792,-1.2801 -0.2866,0.3657 0.3175,0.7818 0.1001,0.1171 1.296,-0.4476 -0.0944,0.6375 1.8082,-0.3878 0.2959,0.0119 0.0558,-0.1548 -0.002,-0.307 -0.0122,-0.1301 0.3155,-0.4073 0.438,-0.5973 -0.2061,-0.5658 -0.003,-1.0134 0.2503,-0.2352 0.3532,0.1051 -0.2486,0.4019 0.123,0.4852 0.7472,-0.233 0.6582,0.3147 1.0213,-0.4399 0.9369,0.3631 -0.341,-1.3229 -0.4116,-2.0151 0.5562,-0.0729 -0.0629,0.2914 0.4451,0.3914 0.3724,0.0315 0.032,-0.6009 0.2202,-0.489 0.1687,0.0389 0.8141,0.3082 1.2206,0.0117 0.8144,-0.7949 -1.2798,0.5125 -1.042,-1.4494 -1.5304,-0.1638 -0.955,-0.1536 0.0303,-0.536 0.2671,0.0365 1.0605,0.6219 0.9111,0.0975 -0.775,-0.3915 0.6758,-1.0225 1.2353,-1.2566 -0.4606,-0.1613 -0.6851,-0.1301 -0.4864,-0.6415 -0.3146,0.1432 -0.6109,-0.1406 -0.2993,-0.3852 0.9065,-0.4266 0.991,-3.3239 1.7583,-4.3829 z m -21.6145,9.4152 c -0.4932,-0.1873 -0.2851,-0.7934 -0.4033,-1.2021 -0.6716,0.009 -0.4074,0.0507 -0.3314,0.5737 0.1638,0.7665 0.7982,0.6545 0.8711,1.5653 1.008,0.7259 1.22,-1.033 -0.1364,-0.9369 z m 0.4428,-34.7252 c 0.2565,-0.6687 -0.1862,-2.7216 -0.6914,-1.266 -1.0012,0.855 -0.1326,1.0554 0.6914,1.266 z m 2.1376,-2.2 c 0.0122,-0.1834 0.2172,-0.1859 0.3047,-0.0522 0.281,0.0171 -0.4575,-0.3211 -0.1981,-0.5176 -0.2188,-0.2718 -0.3243,-2.226 -0.8314,-1.2543 -1.3076,1.5639 -0.8269,3.7534 0.7248,1.8241 z m 91.2637,-9.587 c 0.0884,-0.3878 -0.4397,0.0609 -0.5596,0.0507 -1.2605,0.6919 1.3505,0.9652 0.5596,-0.0507 z m 0.6335,-1.3675 c -0.4515,0.9068 0.8275,1.2555 0.946,0.2928 0.2874,-0.2174 -0.2044,-0.142 -0.3059,-0.1576 0.4606,-0.8677 -0.2327,-0.4487 -0.6401,-0.1352 z m 0.834,-0.7455 c -0.0899,-0.3642 0.432,-0.4034 0.5048,-0.7571 0.1886,-1.2164 -1.4417,0.4512 -0.5048,0.7571 z m 8.0104,-2.3678 c 0.4045,-0.009 1.8173,-0.4748 1.7042,-0.6505 -1.7002,-0.6531 -1.7991,-3.7508 -3.6428,-5.2614 -0.6154,-1.5625 -2.8871,-3.2343 -2.4551,-4.8592 -0.5267,-2.2767 -2.7606,-4.4742 -1.5599,-6.9122 0.7835,-0.5505 2.9378,-1.0239 1.6824,-1.6382 -0.2577,-0.3265 -0.0471,-0.0519 -0.1015,0.1276 -0.6792,0.6908 -0.6154,-1.9579 0.1653,-1.2983 0.553,-0.2341 -0.622,-0.4465 0.4475,-0.9745 1.357,-0.1222 -0.051,-0.9213 0.3864,-1.2189 0.3501,0.212 0.7753,-0.4048 0.4683,-0.5987 -0.4385,0.2928 -0.9499,-0.1117 -0.8067,-0.631 -3.8379,-0.0573 -0.7025,-7.6538 -3.2395,-5.0791 -0.7857,0.7443 -0.5034,-0.5412 -1.7382,0.5726 -0.7206,0.6219 -1.6719,-0.5244 -2.0296,-0.216 -5.2378,1.6288 -3.5399,1.9825 -7.0826,5.9884 -3.6545,2.8843 -4.3637,-0.2732 -6.3556,1.7056 -2.9361,1.5469 -6.1146,2.9118 -8.3381,5.3057 -1.3439,1.5051 -2.2076,0.7571 -3.3735,1.2736 -0.4762,2.4562 -4.2282,0.3084 -5.3303,1.3529 -1.5233,2.5464 -1.8981,0.3461 -2.9792,3.8668 0.3657,0.5034 1.0485,1.0862 0.5411,1.9658 0.8224,3.4699 1.2127,2.0738 3.0053,3.7936 1.3675,-0.5372 -0.0195,3.4934 2.0285,-0.6854 0.9315,-1.5066 3.9784,-0.6897 3.3956,0.9913 -0.1613,0.1794 0.3915,0.4983 0.4632,0.6023 -0.2435,0.6024 0.6517,0.4814 0.9641,0.2472 0.9184,-0.4734 2.2833,1.5171 2.4406,0.3722 0.8575,-0.3345 0.5099,-1.0956 0.8977,-1.7563 0.4553,-0.0718 2.3692,0.5164 2.1062,-0.4777 0.1275,-0.9836 2.1455,-1.2149 2.3615,-1.7419 4.7761,1.6495 10.8425,-0.8379 14.8093,3.2706 2.6229,1.2711 5.9939,-2.6265 7.0645,1.8202 -0.0858,-2.3015 3.0963,-0.008 4.1009,0.7429 z m -43.8063,67.0672 c 0.0196,-0.007 0.0167,0.0286 -10e-4,0.0221 z m -0.3385,38.6841 c 0.6506,-0.0468 0.8275,0.773 0.8978,1.2725 -0.0729,1.4859 -2.6085,-0.7974 -0.8978,-1.2725 z m -77.0196,40.8971 c 1.5064,-2.1265 5.8009,0.009 7.3928,1.2053 1.7342,-0.047 4.0745,-2.9908 4.881,-0.2095 0.5454,0.408 1.641,0.2078 1.7804,1.1033 -0.0609,2.0163 3.3608,2.2385 0.9156,4.6446 0.3535,1.0876 2.0429,0.8367 2.4021,2.0727 0.3141,0.1445 1.0859,0.5723 0.6939,0.97 -0.1247,0.8172 1.7856,1.4638 2.1535,0.699 -1.0412,-5.0284 1.696,-5.9545 5.5947,-7.5918 -1.9454,-2.1639 1.069,-1.7645 1.1305,-4.1048 -0.8447,-1.6305 4.1275,-0.8856 0.9499,2.012 1.1035,1.1605 -0.6373,1.2867 1.1211,1.9982 0.102,2.353 3.9393,3.6408 2.8658,6.5454 -0.2225,1.0758 -0.485,2.8681 1.2889,2.4415 0.4723,-1.7935 1.571,1.98 1.3037,-2.4176 0.7849,-1.2048 1.8856,-2.3967 3.5716,-1.7289 0.4218,0.2531 -0.049,1.1137 0.5372,1.1061 0.9434,-0.7464 2.1883,1.2092 3.3211,0.1108 0.2783,-1.9233 1.667,-3.9342 2.7762,-1.9307 -2.6246,2.6221 1.8326,2.179 -1.8884,3.7934 0.3169,0.5454 -0.1058,1.0777 0.0912,1.794 0.5281,0.3541 0.5486,1.1551 0.921,1.5551 0.6509,0.1624 2.3647,1.0117 1.8919,-0.4535 0.9277,-1.1438 4.1626,-1.6892 3.2592,0.7755 -1.6664,0.582 -1.1503,0.8218 -0.8458,2.325 0.2851,0.0652 0.4714,0.4479 0.3778,0.7038 -0.3787,1.2195 0.4995,0.656 0.3929,1.978 0.7277,-1.0204 2.094,0.1577 2.9724,-0.0725 2.5144,-1.2348 0.1565,-0.9907 1.0143,-1.5565 1.059,0.07 3.2082,-0.809 3.9483,-0.1449 0.9227,2.0509 2.217,5.4046 5.2668,4.0074 0.7141,-0.3223 0.8807,1.0014 1.5494,0.682 0.8587,-0.5806 2.3171,0.3365 3.229,-0.6001 0.7781,-0.2186 8.3772,4.0686 6.6404,1.2143 -2.0593,-0.864 -0.3954,-3.4148 1.2008,-3.4517 0.4725,-1.4221 -0.8391,-1.5276 1.0839,-2.145 0.3212,-2.1784 2.9688,-2.264 4.6809,-2.3403 4.4847,-1.8241 9.6809,-1.3186 14.2279,-2.7714 2.0974,-1.4936 -6.4661,-3.4498 -3.7051,-6.4139 1.0253,0.0481 -0.6208,0.57 0.8285,0.3177 5.7884,-2.0248 -0.5556,-1.9641 0.1979,-4.8115 0.5179,-1.2351 2.2572,0.9272 1.8969,-0.8875 -2.3652,-3.7486 2.611,-2.9169 3.462,-6.0591 1.3986,-1.3739 -1.2308,-1.3275 -2.0894,-1.1426 -0.009,0.6431 1.5378,0.2591 1.1942,0.4841 -0.7585,0.8688 -0.8195,1.9298 -2.1115,2.9568 -1.6966,1.4979 -2.2507,-0.4555 -1.3167,-0.5065 -0.8688,-0.2044 -1.6237,-1.5165 -2.5382,-1.1024 2.3341,1.0142 -1.6667,1.0987 -2.2053,1.8952 -0.7075,0.2271 -0.8521,-0.6681 -1.1682,-0.4322 -0.3461,0.6831 -0.5737,0.0623 -0.2406,-0.3606 -1.3439,-0.1052 -0.6545,-1.531 0.3798,-0.682 -1.1228,-1.3042 -0.5882,-1.4236 -2.3913,-1.4052 -1.1772,-0.2834 -8.7857,-5.5788 -7.8452,-3.0685 0.5273,-0.1584 0.0548,0.6171 0.5828,0.0386 0.2943,0.263 -0.5502,0.3923 0.3983,0.4051 0.2693,-0.3376 -0.1859,-0.002 -0.0989,-0.3059 l 0.3175,0.04 c -0.1834,0.553 1.3243,1.1018 0.7767,1.1514 -0.9341,-0.8495 -0.7339,1.5043 -1.8202,-0.3875 0.3762,-0.5372 -0.121,-0.4374 -0.3447,-0.1372 -0.2395,-0.4156 -0.246,0.2245 -0.2993,0.3183 -0.7376,-0.7696 1.2855,-0.6276 -0.0468,-0.9674 -1.1877,0.9717 -2.3159,-1.4023 -2.0698,-2.4489 -0.3708,-0.248 -0.2044,-1.5979 -1.0514,-1.2245 -0.7662,0.475 0.003,-1.863 0.3577,-0.7285 0.025,1.0459 0.3943,0.0416 0.3617,-0.4737 -0.3174,0.0862 -0.0272,-1.0681 0.3201,-1.0967 0.0742,-0.2418 1.1398,1.271 0.7234,0.3733 0.3903,-0.3603 0.54,-3.246 0.1315,-1.8434 -0.008,0.3331 -0.199,-0.6871 -0.1511,-0.7183 0.5712,-0.6477 0.1993,0.3983 0.6285,-0.1443 0.549,-0.3617 0.1692,-2.1611 0.6519,-0.86 -0.5907,1.3323 0.9678,-0.9003 1.4179,-1.2543 -0.004,0.008 0.2849,0.1811 0.1381,0.1496 -0.4723,0.108 0.2692,0.2849 0.4526,-0.0765 0.1497,-0.216 -0.8807,-3.7964 -1.2659,-2.9208 -0.2809,0.6009 0.3642,2.4029 -0.6647,0.6726 -0.1171,-0.3279 0.8104,-0.3682 0.0663,-0.7012 -0.0102,-0.3201 0.8405,-0.1483 0.0181,-0.7977 -0.7662,-0.2067 -1.1239,1.69 -1.8745,0.6596 -2.666,-12.8475 10.4185,-20.0055 19.2183,-25.1538 3.3866,-9.5505 5.1078,-21.2077 14.7836,-26.6184 1.2268,0.0949 0.7622,-1.3754 1.241,-2.0452 1.2492,-0.9681 3.2343,-0.8536 4.1856,-2.109 4.4507,-3.2006 25.2615,2.9324 12.3282,-6.8786 -1.5687,-3.8146 11.2303,-8.022 13.7361,-9.0031 5.2276,-1.9097 8.8977,-6.2121 13.9521,-8.4084 -0.108,0.0899 1.6353,-0.3523 1.5925,-0.4462 l -0.0116,-0.4422 c 0.178,-0.0847 0.3733,0.1171 0.5267,0.1171 1.3569,-1.2895 -0.2421,-1.3754 1.8241,-2.7856 1.2764,-0.5516 2.4927,-1.6211 3.1875,-2.8622 1.3686,-1.1851 2.9767,-3.9523 1.9916,-5.5292 -2.1464,-0.8977 -0.0623,-6.5027 -3.1042,-4.0422 -1.2033,-0.2381 -4.0212,2.2025 -3.6258,3.0781 0.722,0.9681 -1.4312,0.7129 -0.117,1.3232 0.2366,0.5202 -0.1497,0.9783 -0.5049,1.3335 -1.2827,0.873 -0.1848,2.2546 -1.7056,2.6852 -3.1391,-0.004 -6.4361,0.4995 -9.042,2.1728 -0.4682,0.432 1.0888,0.5462 0.2081,1.2761 0.3487,0.2526 0.9445,-0.1939 1.2634,0.1392 0.2537,0.7002 -0.445,0.1341 -0.7767,0.1276 0.1196,0.7194 -0.877,-0.3201 -1.1372,-0.0638 -2.4237,3.4231 -9.4403,-7.776 -7.8387,-9.6834 -3.4265,-3.0742 -1.9695,-6.596 2.3732,-6.7235 2.5254,-2.8857 5.481,-2.2431 4.6511,-6.617 0.9187,-1.2373 -1.1033,-3.5753 1.1644,-3.9512 -0.9861,-1.0615 -0.6806,-2.5344 -2.3391,-2.0738 -0.4334,-0.419 -0.4751,0.2421 -0.868,0.3824 -6.8003,-0.51 -6.0327,-4.3413 -5.9794,-9.5026 -8.083,-4.5938 -4.4872,-7.8554 -7.9829,-9.0108 -4.8671,0.5738 -5.3368,-0.6491 -5.1715,4.8294 -0.5517,1.4755 1.6066,1.1841 2.2467,1.806 1.0721,2.308 2.537,4.5743 0.5817,6.6115 2.3496,2.2808 6.6741,0.1341 5.2429,5.2107 -3.1249,2.4431 -1.2228,8.2261 -5.0479,12.5223 -1.1852,2.8817 -0.8104,6.6143 -3.4189,8.5059 -1.8487,0.6832 -2.0035,-2.1141 -3.8029,-1.2841 -0.635,1.1761 -0.8365,0.0754 -1.1671,0.5959 0.8615,0.6791 -1.6041,1.8277 -1.9085,2.4848 -0.3838,0.2591 -0.9525,-0.2795 -1.3153,0.1069 -1.1358,1.872 -2.1467,0.0479 -1.4598,2.7788 -0.095,0.2562 0.1666,0.233 0.3069,0.2928 1.8281,0.5335 -2.0709,8.1221 -3.9288,5.7438 -1.1202,0.3983 -1.6744,-1.2554 -2.7283,-0.2627 -0.834,-0.1613 -2.7842,-1.9826 -2.1195,-0.1534 0.2982,0.2446 0.8654,0.078 0.955,0.593 0.2551,0.6571 1.3947,0.5258 0.9876,1.383 -1.4091,0.6364 -2.4693,2.6008 -3.5688,1.914 -0.4071,-1.1971 -1.1838,0.1392 -2.0101,-10e-4 -0.3381,-0.4125 0.4621,-1.1033 -0.4955,-0.7858 0.2512,1.6719 -0.7222,3.4776 -1.8969,4.5913 0.2421,1.9137 -4.3818,6.3658 -4.8294,3.3072 -0.4371,0.009 -0.6882,-0.0573 -0.8691,0.4099 -5.256,3.3772 -6.1758,-2.0622 -6.9902,0.8299 -0.739,1.4208 -1.906,3.0325 -3.7131,2.8038 -0.5114,-0.0119 -1.5262,1.3946 -1.819,0.4969 -1.7343,3.7196 -6.2056,5.2274 -6.0418,6.8681 -0.4215,2.0398 -2.5892,3.0767 -3.9382,4.2803 -1.2906,0.4958 -1.2293,-0.6455 -2.0075,1.0159 -0.6686,2.7505 -6.5038,8.8574 -8.6867,5.4216 -0.4853,10e-4 -0.6401,0.3523 -1.0996,0.4813 -1.2671,1.6418 3.4427,0.432 0.009,3.8534 -1.7357,3.7094 -5.8944,3.293 -4.866,5.5528 0.8589,1.1996 -3.2632,2.2793 -3.1209,1.1214 -0.6494,-0.5593 -0.8238,0.6636 -0.9825,1.076 2.3162,2.8675 0.0606,7.5915 -2.2836,9.8266 -0.8878,3.803 0.0204,8.7622 -4.0156,10.9519 -1.4306,-0.108 -1.7345,0.8535 -2.9746,1.1775 0.1451,-0.2185 -0.2773,-0.5609 0.2999,-0.6896 -0.2824,-0.2979 0.1338,-1.1384 -0.3946,-0.1809 -1.9171,0.6259 -7.8854,6.7079 -8.6888,5.1168 0.2588,-0.6361 -0.4683,-0.0351 -0.6375,-0.0518 -2.3377,3.16 -9.1942,2.4993 -10.3929,-1.5497 -1.8845,-2.5458 -2.3704,-1.323 -4.0264,-5.1024 -0.6134,-2.4993 -5.7007,-3.7066 -8.2706,-3.7939 -4.5114,0.6832 3.831,4.957 0.9944,6.971 0.4609,0.981 -0.2883,0.7622 -0.8303,0.3421 -3.4058,-1.3946 -7.7029,0.7039 -9.6829,3.3645 -0.4521,0.5215 -0.7219,1.1956 -0.2786,1.8549 1.112,0.3099 -1.0947,1.2439 -0.6897,2.2159 2.9807,2.6671 -0.0456,2.5773 3.0422,3.2785 -0.9482,1.3102 -0.1712,3.9705 -2.6119,3.1652 -3.3967,0.976 -0.8248,3.4659 -2.9026,3.4934 -0.1959,0.1522 -0.4224,0.5009 -0.343,0.7702 -0.1075,0.3526 -0.7135,0.597 -0.3354,0.955 2.3071,1.9891 3.3523,-0.8796 3.799,1.0837 0.7929,-0.1471 0.8433,0.9691 1.6121,1.0695 0.1777,-0.0312 0.4753,0.2418 0.6154,0.0896 0.1267,-0.1168 0.2092,-0.3552 0.3489,-0.1457 0.8564,0.6687 0.4306,1.3921 0.506,2.2521 1.8893,2.3374 0.3336,1.1866 -0.2265,2.6215 -3.1541,2.0474 -0.523,3.5362 -2.514,4.0813 -1.4482,0.3543 -2.8369,3.3253 -0.7591,3.6037 0.4612,-0.4745 0.085,0.1616 0.4042,0.1896 1.296,-0.2764 1.2654,1.1617 2.0182,1.6316"
       style="fill:#cda339;fill-opacity:1;fill-rule:evenodd;stroke:none"
       transform="matrix(1.3333333,0,0,-1.3333333,0,793.7008)" />
    <path
       id="path5"
       d="M 39.258731,-12.84225 C 37.969669,-8.4429573 35.766544,-5.0485171 32.555606,-2.5731491 29.438419,-0.08552682 25.58295,1.10314 21.188419,1.10314 15.129825,1.10314 10.278263,-0.91881901 6.598575,-5.0485171 2.9306063,-9.1659608 1.1024813,-14.66814 1.1024813,-21.555055 c 0,-7.242289 1.828125,-13.014063 5.4960937,-17.327576 3.679688,-4.399292 8.625,-6.519286 14.859375,-6.519286 5.777344,0 10.277344,1.838145 13.300781,5.50218 3.023438,3.578254 4.5,8.994654 4.5,15.967348 0,0.269595 0,0.919073 0,2.10774 -0.09375,1.102886 -0.09375,2.009704 -0.09375,2.744962 H 12.844669 c 0.175781,2.021959 0.363281,3.578255 0.632812,4.497327 0.1875,0.919072 0.550782,1.838145 1.019532,2.659182 1.183593,2.2915539 3.117187,3.4802207 5.953125,3.4802207 1.933593,0 3.492187,-0.453409 4.863281,-1.4582613 1.289062,-1.1028864 2.472656,-2.6591824 3.398437,-4.8649554 z M 27.973575,-27.057234 c -0.1875,-2.744963 -0.644531,-4.668887 -1.289062,-5.869808 -0.550782,-1.102887 -1.371094,-2.009705 -2.472657,-2.744963 -1.101562,-0.649478 -2.203125,-1.017107 -3.480468,-1.017107 -1.195313,0 -2.390625,0.367629 -3.398438,1.017107 -1.101562,0.735258 -1.921875,1.642076 -2.566406,2.744963 -0.644531,1.384735 -1.007813,3.39444 -1.289063,5.869808 z m 15.489258,-17.057981 h 6.421875 v -12.193026 h 12.105469 v 12.193026 h 8.074218 v 9.362282 h -8.074218 v 20.440168 c 0,1.936178 0.28125,3.30866 0.832031,4.043917 0.550781,0.8210384 1.558594,1.1886673 2.929687,1.1886673 1.007813,0 2.378907,-0.1838145 4.3125,-0.453409 v 9.61962303 c -2.847656,0.55144336 -5.601562,0.83329219 -8.34375,0.83329219 -2.296875,0 -4.21875,-0.36762891 -5.964843,-1.00485234 -1.839844,-0.64947774 -3.023438,-1.56854998 -3.855469,-2.75721678 -0.550781,-0.8210379 -1.101563,-2.1077391 -1.464844,-3.6640348 -0.363281,-1.56855 -0.644531,-3.2106258 -0.644531,-4.7791756 v -23.466979 h -6.328125 z m 33.292969,0 H 88.58002 V 2.5325547e-4 H 76.755802 Z m 0,-17.057982 h 11.648437 v 12.107246 H 76.755802 Z m 57.591798,45.120321 c -0.64453,5.50218 -2.66016,9.7299121 -5.8711,12.7567234 -3.30468,3.02681132 -7.52343,4.4850727 -12.84375,4.4850727 -2.5664,0 -5.03906,-0.45340903 -7.42968,-1.3724813 -2.37891,-1.0048523 -4.39453,-2.2915535 -6.04688,-3.9458836 -1.92187,-1.9239246 -3.480467,-4.4850726 -4.582029,-7.6956982 -1.195313,-3.124846 -1.746094,-6.421252 -1.746094,-9.913726 0,-3.578255 0.550781,-6.960441 1.746094,-10.171067 1.101562,-3.210626 2.742189,-5.869808 4.851559,-8.075581 3.30469,-3.664035 8.07422,-5.50218 14.21485,-5.50218 10.08984,0 15.86718,5.134551 17.34375,15.587466 l -10.82813,2.291553 c -0.36328,-2.009704 -1.00781,-3.847849 -1.82812,-5.502179 -1.10157,-2.107739 -2.94141,-3.210626 -5.32032,-3.210626 -1.28906,0 -2.39062,0.281849 -3.39843,0.833293 -1.10157,0.551443 -1.82813,1.372481 -2.37891,2.377333 -1.47656,2.389588 -2.20312,5.784028 -2.20312,9.999506 0,9.631878 2.5664,14.4968336 7.69921,14.4968336 2.20313,0 3.85547,-0.7352579 5.05079,-2.2057736 1.27734,-1.372481 2.28515,-3.762069 3.02343,-7.058475 z M 167.2392,2.5325547e-4 166.59467,-3.847596 c -4.125,3.39444027 -8.625,5.0365161 -13.47656,5.0365161 -1.7461,0 -3.58594,-0.36762895 -5.50782,-1.10288677 -1.82812,-0.82103789 -3.38672,-1.82589023 -4.67578,-3.01455703 -2.29687,-2.3038078 -3.39844,-5.4163992 -3.39844,-9.3622833 0,-3.210625 0.83204,-5.869808 2.48438,-7.977547 1.65234,-2.107739 4.3125,-3.847849 8.0625,-5.232585 3.76172,-1.372481 8.90625,-2.561148 15.59766,-3.566 0,-2.021959 -0.1875,-3.492475 -0.64454,-4.411547 -0.73828,-1.74011 -2.5664,-2.561148 -5.41406,-2.561148 -1.82812,0 -3.38672,0.367629 -4.48828,1.188667 -1.19531,0.735258 -2.10937,2.021959 -2.75391,3.847849 l -10.64062,-1.923924 c 1.19531,-4.215479 3.21094,-7.32807 6.15234,-9.350029 3.02344,-2.021959 7.05469,-3.026811 12.10547,-3.026811 6.87891,0 11.82422,1.838144 14.84766,5.502179 1.10156,1.286701 1.74609,2.659182 2.20312,4.313513 0.45703,1.556295 0.64453,3.664034 0.64453,6.421251 v 21.9106829 c 0,2.6591824 0.28125,5.0487703 0.73829,7.15650935547 z M 165.68061,-21.003612 c -5.6836,1.470516 -9.63282,2.842997 -11.74219,4.031664 -2.10938,1.286701 -3.11719,2.842997 -3.11719,4.779176 0,3.1125913 1.65234,4.668887 4.86328,4.668887 1.3711,0 2.56641,-0.1838145 3.76172,-0.6372235 1.10156,-0.4534089 2.92969,-1.3724812 5.22656,-2.7572165 0.26953,-0.08578 0.55078,-0.269595 1.00782,-0.637224 z m 20.26464,-23.111603 h 11.82422 V 2.5325547e-4 h -11.82422 z m 0,-17.057982 h 11.64844 v 12.107246 h -11.64844 z m 20.17383,17.057982 h 11.82422 v 5.502179 c 2.48438,-2.475368 4.6875,-4.215478 6.70313,-5.220331 2.01562,-1.017106 4.21875,-1.470515 6.6914,-1.470515 2.75391,0 4.95703,0.551443 6.69141,1.65433 1.74609,1.090632 3.49219,3.026811 5.14453,5.869808 2.83594,-2.659182 5.40234,-4.595361 7.79297,-5.784028 2.28516,-1.188667 4.76953,-1.74011 7.33594,-1.74011 4.03125,0 7.24218,1.372481 9.53906,4.313512 2.37891,2.842997 3.57422,6.776626 3.57422,11.739617 V 2.5325547e-4 H 259.49799 V -27.976307 c 0,-4.668887 -1.74609,-6.96044 -5.32031,-6.96044 -1.38282,0 -2.75391,0.367629 -4.13672,1.090632 -1.3711,0.735258 -3.11719,2.021959 -5.3086,3.860104 V 2.5325547e-4 H 232.80268 V -27.976307 c 0,-4.668887 -1.7461,-6.96044 -5.32032,-6.96044 -1.37109,0 -2.83593,0.367629 -4.3125,1.090632 -1.37109,0.735258 -3.19921,2.021959 -5.22656,3.860104 V 2.5325547e-4 h -11.82422 z m 73.54688,0 h 11.91797 v 3.945883 c 1.93359,-1.838144 3.85547,-3.112591 5.69531,-3.945883 1.73437,-0.821038 3.66797,-1.188667 5.77734,-1.188667 4.85157,0 8.89453,2.107739 12.01172,6.421251 3.11719,4.215478 4.67578,9.717658 4.67578,16.322724 0,6.78888 -1.65234,12.474874 -4.86328,16.9599466 -3.21094,4.5953613 -7.33594,6.7888805 -12.19922,6.7888805 -2.3789,0 -4.30078,-0.26959458 -5.95312,-0.91907231 -1.5586,-0.72300352 -3.30469,-1.92392459 -5.14453,-3.66403479 v 18.896126 h -11.91797 z m 11.91797,31.371 c 1.38281,1.458261 2.7539,2.475367 3.94922,3.0268108 1.19531,0.6372235 2.66015,0.9190723 4.21875,0.9190723 2.47265,0 4.40625,-1.2009211 5.77734,-3.6762891 1.46484,-2.377334 2.10937,-5.685994 2.10937,-9.901472 0,-4.215478 -0.64453,-7.426104 -2.01562,-9.717657 -1.38281,-2.205774 -3.39844,-3.30866 -5.96484,-3.30866 -1.46485,0 -2.84766,0.281848 -3.9375,0.833292 -1.19532,0.637223 -2.57813,1.74011 -4.13672,3.296406 z m 35.57226,-31.371 h 11.82422 v 7.891767 c 1.93359,-3.492475 4.13672,-5.869809 6.32813,-7.058475 2.29687,-1.286701 5.41406,-1.936179 9.36328,-1.752365 v 11.555802 c -10.46485,-0.183814 -15.69141,3.578255 -15.69141,11.470022 V 2.5325547e-4 H 327.15619 Z M 395.664,-12.84225 c -1.28906,4.3992927 -3.49218,7.7937329 -6.70312,10.2691009 -3.11719,2.48762228 -6.97266,3.6762891 -11.36719,3.6762891 -6.05859,0 -10.91015,-2.02195901 -14.58984,-6.1516571 -3.66797,-4.1174437 -5.4961,-9.6196229 -5.4961,-16.5065379 0,-7.242289 1.82813,-13.014063 5.4961,-17.327576 3.67969,-4.399292 8.625,-6.519286 14.85937,-6.519286 5.77735,0 10.27735,1.838145 13.30078,5.50218 3.02344,3.578254 4.5,8.994654 4.5,15.967348 0,0.269595 0,0.919073 0,2.10774 -0.0937,1.102886 -0.0937,2.009704 -0.0937,2.744962 h -26.32031 c 0.17578,2.021959 0.36328,3.578255 0.63281,4.497327 0.1875,0.919072 0.55079,1.838145 1.01954,2.659182 1.18359,2.2915539 3.11718,3.4802207 5.95312,3.4802207 1.93359,0 3.49219,-0.453409 4.86328,-1.4582613 1.28906,-1.1028864 2.47266,-2.6591824 3.39844,-4.8649554 z m -11.28515,-14.214984 c -0.1875,-2.744963 -0.64453,-4.668887 -1.28906,-5.869808 -0.55079,-1.102887 -1.3711,-2.009705 -2.47266,-2.744963 -1.10156,-0.649478 -2.20313,-1.017107 -3.48047,-1.017107 -1.19531,0 -2.39062,0.367629 -3.39844,1.017107 -1.10156,0.735258 -1.92187,1.642076 -2.5664,2.744963 -0.64453,1.384735 -1.00782,3.39444 -1.28907,5.869808 z m 27.61816,13.026317 c 0.36328,1.923925 1.10156,3.210626 2.01563,3.945884 1.00781,0.7352577 2.47265,1.1028866 4.58203,1.1028866 1.65234,0 2.9414,-0.3676289 3.85547,-1.0171066 1.00781,-0.735258 1.46484,-1.556296 1.46484,-2.659182 -0.0937,-1.188667 -0.82031,-2.107739 -2.20312,-2.842997 -0.45704,-0.269595 -1.46485,-0.551444 -2.83594,-0.821038 l -3.49219,-0.833292 c -8.70703,-1.923925 -13.11328,-6.690846 -13.11328,-14.214985 0,-4.215478 1.46484,-7.609918 4.5,-10.085286 2.92969,-2.561148 6.87891,-3.847849 11.73047,-3.847849 4.76953,0 8.71875,1.286701 11.83594,3.847849 0.91406,0.833292 1.65234,1.74011 2.20312,2.757217 0.55078,1.102886 1.19531,2.561148 1.92188,4.668887 l -10.64063,1.936179 c -0.36328,-1.384736 -0.91406,-2.291554 -1.73437,-2.941032 -0.83204,-0.551443 -2.02735,-0.821037 -3.58594,-0.821037 -1.27735,0 -2.37891,0.269594 -3.19922,0.919072 -0.83203,0.637223 -1.28906,1.458261 -1.28906,2.377333 0,1.102887 0.55078,2.021959 1.74609,2.659183 1.10156,0.551443 3.29297,1.286701 6.59766,2.107739 3.02343,0.735258 5.32031,1.384735 6.6914,2.107739 1.47657,0.735258 2.75391,1.65433 3.94922,2.941031 2.20313,2.573403 3.30469,5.58796 3.30469,9.080434 0,4.3992928 -1.55859,7.8917674 -4.76953,10.7347643 -3.21094,2.7449625 -7.25391,4.1174438 -12.29297,4.1174438 -5.32031,0 -9.35156,-1.00485239 -12.19922,-3.0268114 -2.75391,-2.107739 -4.67578,-5.5021793 -5.58984,-10.1710667 z m 68.20313,1.188667 c -1.28907,4.3992927 -3.49219,7.7937329 -6.70313,10.2691009 -3.11719,2.48762228 -6.97265,3.6762891 -11.36719,3.6762891 -6.05859,0 -10.91015,-2.02195901 -14.58984,-6.1516571 -3.66797,-4.1174437 -5.49609,-9.6196229 -5.49609,-16.5065379 0,-7.242289 1.82812,-13.014063 5.49609,-17.327576 3.67969,-4.399292 8.625,-6.519286 14.85938,-6.519286 5.77734,0 10.27734,1.838145 13.30078,5.50218 3.02343,3.578254 4.5,8.994654 4.5,15.967348 0,0.269595 0,0.919073 0,2.10774 -0.0937,1.102886 -0.0937,2.009704 -0.0937,2.744962 h -26.32032 c 0.17579,2.021959 0.36329,3.578255 0.63282,4.497327 0.1875,0.919072 0.55078,1.838145 1.01953,2.659182 1.18359,2.2915539 3.11719,3.4802207 5.95312,3.4802207 1.9336,0 3.49219,-0.453409 4.86328,-1.4582613 1.28907,-1.1028864 2.47266,-2.6591824 3.39844,-4.8649554 z m -11.28516,-14.214984 c -0.1875,-2.744963 -0.64453,-4.668887 -1.28906,-5.869808 -0.55078,-1.102887 -1.3711,-2.009705 -2.47266,-2.744963 -1.10156,-0.649478 -2.20312,-1.017107 -3.48047,-1.017107 -1.19531,0 -2.39062,0.367629 -3.39843,1.017107 -1.10157,0.735258 -1.92188,1.642076 -2.56641,2.744963 -0.64453,1.384735 -1.00781,3.39444 -1.28906,5.869808 z m 0,0"
       style="fill:#0e2633;fill-opacity:1;fill-rule:nonzero;stroke:none"
       aria-label="eticaimprese"
       transform="matrix(1.3333333,0,0,1.275063,72.5144,416.09733)" />
  </g>
</svg>
