<?xml version="1.0" encoding="UTF-8" standalone="no"?>
<svg
   xmlns:dc="http://purl.org/dc/elements/1.1/"
   xmlns:cc="http://creativecommons.org/ns#"
   xmlns:rdf="http://www.w3.org/1999/02/22-rdf-syntax-ns#"
   xmlns:svg="http://www.w3.org/2000/svg"
   xmlns="http://www.w3.org/2000/svg"
   viewBox="0 0 793.28003 794.08002"
   height="794.08002"
   width="793.28003"
   xml:space="preserve"
   id="svg2"
   version="1.1"><metadata
     id="metadata8"><rdf:RDF><cc:Work
         rdf:about=""><dc:format>image/svg+xml</dc:format><dc:type
           rdf:resource="http://purl.org/dc/dcmitype/StillImage" /></cc:Work></rdf:RDF></metadata><defs
     id="defs6"><clipPath
       id="clipPath18"
       clipPathUnits="userSpaceOnUse"><path
         style="clip-rule:evenodd"
         id="path16"
         d="M 0,1.8311e-4 H 594.96 V 595.56018 H 0 Z" /></clipPath></defs><g
     transform="matrix(1.3333333,0,0,-1.3333333,0,794.08)"
     id="g10"><g
       id="g12"><g
         clip-path="url(#clipPath18)"
         id="g14"><path
           id="path20"
           style="fill:#ffffff;fill-opacity:1;fill-rule:evenodd;stroke:none"
           d="M 0,6.1035e-5 H 594.96 V 595.56006 H 0 Z" /></g></g><path
       id="path22"
       style="fill:#b69624;fill-opacity:1;fill-rule:evenodd;stroke:none"
       d="m 160.58,248.52 h 5.3129 v 62.792 H 160.58 Z" /><path
       id="path24"
       style="fill:#b69624;fill-opacity:1;fill-rule:evenodd;stroke:none"
       d="M 198.8,398.4 H 82.2 v -5.3 h 55.64 V 248.52 h 5.32 V 393.1 h 55.64 z" /><path
       id="path26"
       style="fill:#b69624;fill-opacity:1;fill-rule:evenodd;stroke:none"
       d="m 209.39,398.4 h -5.31 v -18.9 -62.89 h -38.21 v 62.89 h -5.31 v -62.89 -5.3 h 43.52 v -62.79 h 5.31 v 62.79 5.3 62.89 z" /><path
       id="path28"
       style="fill:#b69624;fill-opacity:1;fill-rule:evenodd;stroke:none"
       d="m 226.8,248.43 h 5.2415 v 91.527 H 226.8 Z" /><path
       id="path30"
       style="fill:#b69624;fill-opacity:1;fill-rule:evenodd;stroke:none"
       d="m 226.8,359.43 h 5.2415 v 38.966 H 226.8 Z" /><path
       id="path32"
       style="fill:#b69624;fill-opacity:1;fill-rule:evenodd;stroke:none"
       d="M 125.73,379.44 H 82.2 v -5.3 -57.56 -5.3 -57.46 -5.3 h 43.53 v 5.3 H 87.512 v 57.46 h 32.908 v 5.3 H 87.512 v 57.56 h 38.218 z" /><path
       id="path34"
       style="fill:#b69624;fill-opacity:1;fill-rule:evenodd;stroke:none"
       d="m 320.73,398.4 h -43.41 v -5.3 -139.28 -5.3 h 43.41 v 5.3 H 282.62 V 393.1 h 38.11 z" /><path
       id="path36"
       style="fill:#b69624;fill-opacity:1;fill-rule:evenodd;stroke:none"
       d="m 243.72,311.32 h 22.756 v 5.3609 H 243.72 Z" /><path
       id="path38"
       style="fill:#b69624;fill-opacity:1;fill-rule:evenodd;stroke:none"
       d="m 397.2,304.55 h -8.04 l -0.79,-3 -0.77,-3 -0.76,-3 -0.74,-3.01 -0.67,-4 -0.61,-3 -0.54,-3 -0.47,-3 -0.39,-3 -0.29,-3.01 -0.21,-3 -0.11,-2 v -3 l 0.16,-3 0.74,-4 1.43,-4.01 2.14,-3 2.95,-2 1.8,-1 h 7.11 l 2.83,1 1.52,1 h -8.46 l -1.86,1 -2.72,3 -1.46,4.01 -0.36,3 -0.15,3 0.07,3 0.28,3 0.43,4 0.58,3.01 0.74,4 0.87,4 0.92,3 0.98,4 1.04,3.01 1.06,4 1.05,3 z" /><path
       id="path40"
       style="fill:#b69624;fill-opacity:1;fill-rule:evenodd;stroke:none"
       d="m 453.22,298.55 h -7.39 l -0.43,-1 -0.42,-2 -0.42,-2.01 -0.42,-1 -0.67,-4 -0.61,-3 -0.55,-3 -0.47,-3 -0.38,-3 -0.3,-3.01 -0.2,-3 -0.11,-2 v -3 l 0.15,-3 0.75,-4 1.42,-4.01 2.15,-3 2.95,-2 1.8,-1 h 7.1 l 2.84,1 1.52,1 h -8.47 l -1.85,1 -2.72,3 -1.46,4.01 -0.37,3 -0.14,3 0.07,3 0.28,3 0.43,4 0.58,3.01 0.74,4 0.87,4 0.92,3 0.98,4 1.04,3.01 z" /><path
       id="path42"
       style="fill:#b69624;fill-opacity:1;fill-rule:evenodd;stroke:none"
       d="m 495.8,396.6 h -3.94 l -1.44,-1 -1.48,-1 h -1.43 l -1.39,-1 -1.36,-2 -1.62,-1 -1.63,-2 -1.65,-3.01 -1.66,-2 -1.69,-3 -5.09,-9 -1.69,-4.01 -1.69,-3 -1.67,-4 -1.66,-4 -1.65,-4 -1.61,-4.01 -1.59,-4 -1.56,-5 -1.24,-3 -1.21,-4 -1.19,-3.01 -1.15,-4 -1.14,-4 -0.67,-2 -0.65,-2 -0.64,-2 -0.63,-2 -1.2,-2.01 -3.56,-6 -1.21,-2 -3.66,-6 -1.68,-3.01 -1.75,-2 -1.82,-3 -1.89,-3 -1.94,-3 -1.98,-3 -2.01,-3 -2.05,-2.01 -4.18,-6 -2.08,-2 -2.09,-3 -2.07,-2 -2.04,-2 -2.01,-2 -1.98,-2.01 -1.95,-1 -1.88,-2 -1.83,-1 -1.75,-1 -1.7,-1 h 4.02 l 1.52,1 3.14,2 3.2,2 3.26,3.01 3.31,3 2.65,3 2.63,3 2.6,2 2.57,4 2.56,3.01 2.48,3 2.38,3 2.27,4 2.17,3 2.07,4 0.89,1 2.64,4.01 h 7.39 l 0.27,1 1.05,3 2.09,6 1,3 0.89,2.01 0.78,2 0.69,1 1.8,3 1.87,2 1.93,3 1.99,2 2.03,3 0.68,1 h -6.04 l 1.28,3.01 1.32,4 1.36,4 1.4,3 1.44,4 1.49,3.01 1.84,4 1.88,4 1.93,4 1.97,4 2.03,3.01 1.75,3 1.61,2 1.48,2 1.36,2 1.17,1 0.98,1 h 8.38 l 0.23,1 0.52,2 0.35,2 0.07,3.01 -0.19,1 -0.47,2 -0.69,1 -0.83,1 -0.98,1 z" /><path
       id="path44"
       style="fill:#b69624;fill-opacity:1;fill-rule:evenodd;stroke:none"
       d="m 512.52,315.56 h -3.44 l -1.18,-2 -1.22,-2.01 -4.83,-8 -3.66,-6 -1.69,-3.01 -1.74,-2 -1.82,-3 -1.89,-3 -1.94,-3 -1.98,-3 -2.02,-3 -2.04,-2.01 -4.18,-6 -2.08,-2 -2.09,-3 -2.07,-2 -2.04,-2 -2.01,-2 -1.99,-2.01 -1.94,-1 -1.89,-2 -1.82,-1 -1.76,-1 -1.69,-1 h 4.02 l 1.51,1 3.15,2 3.2,2 3.26,3.01 3.31,3 2.65,3 2.63,3 2.6,2 2.57,4 2.55,3.01 2.49,3 2.38,3 2.27,4 2.17,3 2.07,4 1.37,2.01 4.07,7 5.32,8 0.62,1 0.46,1 0.29,1.01 h 0.14 v 1 z" /><path
       id="path46"
       style="fill:#b69624;fill-opacity:1;fill-rule:evenodd;stroke:none"
       d="m 349.29,313.56 h -8.37 l -0.99,-2.01 -0.76,-2 -0.51,-2 -0.28,-2 -0.05,-2 0.17,-2 0.39,-2 0.61,-1 0.81,-2 1.05,-1 1.27,-2.01 1.5,-1 1.7,-1 1.91,-1 h 4.4 l 2.95,-1 h 2.99 l 6.07,2 h 3.04 l 2.99,1 2.95,2 h -20.04 l -1,1.01 h -0.93 l -0.83,1 -1.86,3 -0.75,4 0.01,2 0.15,2 0.29,2 0.47,2 z" /><path
       id="path48"
       style="fill:#b69624;fill-opacity:1;fill-rule:evenodd;stroke:none"
       d="m 348.68,330.56 h -17.01 l -3.13,-2 -2.97,-1 -2.82,-1 -2.67,-2 -2.48,-2 -2.26,-3 -2.06,-2 -1.85,-3 -1.57,-3.01 -1.22,-3 -0.88,-3 -0.53,-3 -0.15,-2 0.01,-2 0.16,-1 0.31,-2 2.21,-3.01 2.62,-2 h 4.49 l 1.51,1 h 1.49 l 2.95,2 1.47,2.01 1.44,1 1.41,1 1.4,2 h -9.94 l -0.16,1 h -0.08 l -0.01,1 h 0.04 l 0.09,1 0.11,1 0.15,1 h 0.17 l 0.18,1 0.2,1 h 0.24 l 0.23,1 0.39,1 h 0.16 l 0.82,2 0.95,2 1.09,2.01 1.23,2 1.3,1 1.38,2 1.45,1 1.52,2 1.57,1 1.6,1 1.65,1 3.38,2 H 354 l -1.65,1 -1.8,1 z" /><path
       id="path50"
       style="fill:#b69624;fill-opacity:1;fill-rule:evenodd;stroke:none"
       d="m 437.76,396.6 h -3.94 l -1.44,-1 -1.48,-1 h -1.43 l -1.39,-1 -1.36,-2 -1.61,-1 -1.64,-2 -1.64,-3.01 -1.67,-2 -1.68,-3 -5.1,-9 -1.69,-4.01 -1.69,-3 -1.67,-4 -1.66,-4 -1.64,-4 -1.62,-4.01 -1.59,-4 -1.56,-5 -1.24,-3 -1.21,-4 -1.18,-3.01 -1.16,-4 -1.14,-4 -0.67,-2 -0.65,-2 -0.63,-2 -0.62,-2 -1.55,-2.01 -1.79,-2 -2.02,-1 -2.26,-2 -2.44,-2 -2.51,-2 -2.58,-1 -2.66,-2 -5.36,-2 -2.65,-2 h -2.64 l -2.56,-1.01 h 12.39 l 2.9,1.01 2.83,2 2.73,1 2.64,2 2.54,2 0.67,1 h 0.67 l 0.64,1 h 8.45 l 1.4,4 0.99,3 0.89,2.01 0.79,2 0.68,1 1.8,3 1.87,2 1.93,3 1.99,2 2.03,3 0.69,1 h -6.04 l 1.27,3.01 1.32,4 1.36,4 1.4,3 1.44,4 1.49,3.01 1.84,4 1.88,4 1.93,4 1.98,4 2.02,3.01 1.75,3 1.61,2 1.49,2 1.35,2 1.17,1 0.98,1 h 8.39 l 0.23,1 0.51,2 0.35,2 0.08,3.01 -0.2,1 -0.47,2 -0.69,1 -0.83,1 -0.98,1 z" /><path
       id="path52"
       style="fill:#b69624;fill-opacity:1;fill-rule:evenodd;stroke:none"
       d="m 350.32,318.56 h -10.05 l -0.49,-1 h -0.63 l -2.63,-3 -2.13,-2.01 -4.81,-5 -1.24,-1 -1.2,-2 -1.18,-1 -1.13,-1 -1.08,-1 -1.01,-1 h -0.94 l -0.87,-1 h 7.62 l 1.36,1 1.31,2 1.26,1 1.21,2 1.13,1 1.09,1 1.02,2 0.97,1 0.88,1 0.81,1 0.71,1.01 h 8.99 l 0.82,3 0.18,1 z" /><path
       id="path54"
       style="fill:#b69624;fill-opacity:1;fill-rule:evenodd;stroke:none"
       d="m 511.65,316.56 h -0.61 l -0.78,-1 h 1.81 z" /><path
       id="path56"
       style="fill:#b69624;fill-opacity:1;fill-rule:evenodd;stroke:none"
       d="m 349.54,320.56 h -7.01 l -1.91,-2 h 9.58 l -0.27,1 z" /><path
       id="path58"
       style="fill:#b69624;fill-opacity:1;fill-rule:evenodd;stroke:none"
       d="m 357.7,319.56 h -3.81 l 0.65,-1 h 2.78 z" /><path
       id="path60"
       style="fill:#b69624;fill-opacity:1;fill-rule:evenodd;stroke:none"
       d="m 354,327.56 h -8.23 l 1.18,-1 h 1.14 l 1.06,-1 0.98,-1 0.88,-1 0.8,-2 0.42,-1 h 0.48 l 0.56,-1 h 4.74 l 0.17,1 v 1 h -0.16 l -0.35,1 -1.01,2 -1.23,2 z" /><path
       id="path62"
       style="fill:#b69624;fill-opacity:1;fill-rule:evenodd;stroke:none"
       d="m 347.82,321.56 h -3.36 l -0.97,-1 h 4.99 z" /><path
       id="path64"
       style="fill:#b69624;fill-opacity:1;fill-rule:evenodd;stroke:none"
       d="m 344.76,331.56 h -6.63 l -3.25,-1 h 11.87 z" /><path
       id="path66"
       style="fill:#b69624;fill-opacity:1;fill-rule:evenodd;stroke:none"
       d="m 440.89,381.59 h -6.67 l 0.13,-1 -0.09,-1 -0.34,-1 -0.61,-2 -0.91,-2 -1.21,-3 -1.5,-3.01 -1.19,-2 -1.26,-3 -1.32,-2 -1.38,-2 -1.43,-3 -1.45,-2 -1.48,-3 -1.5,-2.01 -1.53,-3 -1.56,-2 -1.57,-3 -3.2,-4 -1.56,-3 -1.53,-2 -1.51,-2.01 h 6.04 l 1.36,2.01 4.15,6 2.06,3 2.04,3 2.02,3 1.98,3.01 1.93,3 1.83,3 1.73,3 1.65,3 1.55,3 1.43,3 1.32,3.01 1.21,3 1.04,2 0.87,3 z" /><path
       id="path68"
       style="fill:#b69624;fill-opacity:1;fill-rule:evenodd;stroke:none"
       d="m 498.92,381.59 h -6.66 l 0.13,-1 -0.1,-1 -0.33,-1 -0.61,-2 -0.91,-2 -1.21,-3 -1.51,-3.01 -1.19,-2 -1.25,-3 -1.32,-2 -1.38,-2 -1.43,-3 -1.46,-2 -1.47,-3 -1.5,-2.01 -1.54,-3 -1.55,-2 -1.58,-3 -3.19,-4 -1.56,-3 -1.54,-2 -1.51,-2.01 h 6.04 l 1.37,2.01 4.15,6 2.06,3 2.04,3 2.01,3 1.99,3.01 1.93,3 1.82,3 1.74,3 1.65,3 1.55,3 1.43,3 1.32,3.01 1.21,3 1.04,2 0.86,3 z" /><path
       id="path70"
       style="fill:#b69624;fill-opacity:1;fill-rule:evenodd;stroke:none"
       d="m 183.43,220.95 h -63.37 l 4.56,-0.09 9.57,-0.4 11.64,-0.6 3.96,-0.3 7.97,-0.4 8.01,-0.6 4,-0.2 11.89,-0.9 0.33,-2.69 0.68,-2.7 1.02,-2.39 1.33,-2.3 0.31,-0.5 0.33,-0.4 0.34,-0.49 3.23,-3.2 3.99,-2.39 3.6,-1.3 2.89,-0.5 h 2.11 l 3.94,0.4 3.68,1.2 0.37,0.2 h -11.57 l -2.72,0.69 -4.86,2.6 -2.4,2.1 -0.32,0.39 -0.31,0.3 4.53,1.2 h 1.77 l -0.12,0.2 h -7.22 l -1.34,2.2 -1.03,2.39 -0.68,2.5 -0.31,2.69 h 64.16 l -2,0.1 -4,0.3 -4.01,0.2 -11.95,0.9 -1.97,0.1 h -40.23 z" /><path
       id="path72"
       style="fill:#b69624;fill-opacity:1;fill-rule:evenodd;stroke:none"
       d="m 193.93,207.68 h -1.77 l 1.08,-1.99 1.36,-1.8 1.66,-1.8 1.98,-1.69 h 6.5 l 0.24,0.2 h -4.19 l -2.34,1.59 -1.93,1.8 -1.56,2 z" /><path
       id="path74"
       style="fill:#b69624;fill-opacity:1;fill-rule:evenodd;stroke:none"
       d="m 218.32,207.68 h -7.45 l 4.65,-1.2 -0.3,-0.3 -2.76,-2.49 -4.95,-2.6 -2.77,-0.69 h 5.07 l 2.96,1.59 2.9,2.4 1.48,1.6 0.35,0.49 0.33,0.4 0.3,0.5 z" /><path
       id="path76"
       style="fill:#b69624;fill-opacity:1;fill-rule:evenodd;stroke:none"
       d="m 202.36,208.78 h -1.57 v -8.18 h 4.19 l 0.11,0.1 h -2.73 z" /><path
       id="path78"
       style="fill:#b69624;fill-opacity:1;fill-rule:evenodd;stroke:none"
       d="m 213.12,208.78 h -10.76 l 1.7,-0.1 3.47,-0.4 1.75,-0.3 -1.2,-1.99 -1.52,-1.9 -1.9,-1.8 -2.3,-1.59 h 2.73 l 1.65,1.39 1.67,1.7 1.37,1.9 1.09,1.99 h 7.45 l 0.12,0.2 h -1.88 l -2.48,0.6 z" /><path
       id="path80"
       style="fill:#b69624;fill-opacity:1;fill-rule:evenodd;stroke:none"
       d="m 191.51,217.66 h -1.57 l 0.11,-2.09 0.29,-2.2 0.48,-2.1 0.7,-2.19 -4.93,-1.2 h 7.22 l -0.06,0.1 1.78,0.3 3.53,0.4 1.73,0.1 h 12.33 l -0.32,0.1 -1.29,0.3 0.1,0.3 h -18.53 l -0.7,1.99 -0.48,2.1 -0.28,2.1 z" /><path
       id="path82"
       style="fill:#b69624;fill-opacity:1;fill-rule:evenodd;stroke:none"
       d="m 247.39,217.66 h -27.46 l -0.31,-2.69 -0.69,-2.5 -1.02,-2.39 -1.35,-2.2 h 1.88 l 0.69,1.1 0.83,1.8 0.67,1.79 0.49,1.9 h 96.08 l 1.94,1.5 H 283.1 l -4.56,0.09 -9.58,0.4 -15.59,0.8 -3.98,0.3 z" /><path
       id="path84"
       style="fill:#b69624;fill-opacity:1;fill-rule:evenodd;stroke:none"
       d="m 110.93,226.64 -4.59,-0.1 -4.57,-0.2 -4.402,-0.49 -4.088,-0.7 -3.635,-0.9 -3.042,-1.3 -3.235,-2.49 -1.168,-2.6 0.621,-2.59 2.13,-2.3 3.361,-1.99 3.306,-1.1 3.845,-0.7 4.163,-0.2 4.254,0.3 4.14,0.9 -3.83,0.89 -3,0.9 -2.39,0.9 -2.025,1.1 -2.403,2.29 0.673,1.8 5.415,1.9 3.42,0.4 3.7,0.3 3.94,0.2 4.17,0.09 h 67.74 l 0.1,0.9 0.16,0.6 h -1.65 l -3.94,0.2 -7.87,0.6 -3.93,0.2 -7.87,0.6 -3.94,0.2 -31.01,1.99 -3.84,0.2 z" /><path
       id="path86"
       style="fill:#b69624;fill-opacity:1;fill-rule:evenodd;stroke:none"
       d="m 204.22,210.28 h -5.32 l -1.93,-0.2 -3.89,-0.6 h 16.87 l -3.83,0.6 z" /><path
       id="path88"
       style="fill:#b69624;fill-opacity:1;fill-rule:evenodd;stroke:none"
       d="m 213.08,217.66 h -1.57 l -0.12,-1.99 -0.27,-2.1 -0.47,-2.1 -0.7,-1.99 h 1.66 l 0.6,1.79 0.47,2.2 0.28,2.1 z" /><path
       id="path90"
       style="fill:#b69624;fill-opacity:1;fill-rule:evenodd;stroke:none"
       d="m 200.79,210.28 h 1.5693 v 7.3851 H 200.79 Z" /><path
       id="path92"
       style="fill:#b69624;fill-opacity:1;fill-rule:evenodd;stroke:none"
       d="m 317.2,214.47 h -96.08 l 7.87,-0.6 3.93,-0.2 3.94,-0.3 3.93,-0.2 7.88,-0.6 34.84,-2.09 8.71,-0.2 4.6,0.1 4.57,0.2 4.4,0.4 4.08,0.69 3.64,1 3.04,1.3 z" /><path
       id="path94"
       style="fill:#b69624;fill-opacity:1;fill-rule:evenodd;stroke:none"
       d="m 303.53,227.94 -4.26,-0.3 -4.13,-0.9 3.82,-0.89 3,-0.9 2.4,-1 2.02,-1 2.4,-2.29 -0.67,-1.8 -5.42,-1.9 -3.42,-0.4 -3.69,-0.3 -3.94,-0.2 -4.17,-0.09 h 31.67 l 0.65,0.49 1.16,2.6 -0.62,2.49 -2.13,2.4 -3.36,1.99 -3.3,1.1 -3.85,0.7 z" /><path
       id="path96"
       style="fill:#b69624;fill-opacity:1;fill-rule:evenodd;stroke:none"
       d="m 193.85,228.94 h -7.34 l 1.21,-0.4 3.79,-0.9 -0.69,-2.09 -0.48,-2.1 -0.28,-2.2 -0.12,-1.99 h 1.57 l 0.12,1.99 0.28,2 0.47,2.1 0.68,1.99 h 18.56 l -0.1,0.3 1.75,0.4 h -14.21 l -3.55,0.4 -1.78,0.3 z" /><path
       id="path98"
       style="fill:#b69624;fill-opacity:1;fill-rule:evenodd;stroke:none"
       d="m 209.96,227.34 h -16.9 l 1.96,-0.4 3.88,-0.4 1.89,-0.1 v -7.18 h 1.57 v 7.18 l 1.87,0.1 3.81,0.4 z" /><path
       id="path100"
       style="fill:#b69624;fill-opacity:1;fill-rule:evenodd;stroke:none"
       d="m 211.62,227.34 h -1.66 l 0.69,-2.09 0.46,-2 0.28,-2 0.12,-1.99 h 1.57 l -0.12,1.99 -0.28,2.1 -0.47,2.2 z" /><path
       id="path102"
       style="fill:#b69624;fill-opacity:1;fill-rule:evenodd;stroke:none"
       d="m 218.49,228.94 h -1.85 l 1.31,-2.2 1.01,-2.39 0.66,-2.5 0.31,-2.59 h 3.53 l -1.97,0.1 -0.31,2.79 -0.67,2.6 -1,2.39 z" /><path
       id="path104"
       style="fill:#b69624;fill-opacity:1;fill-rule:evenodd;stroke:none"
       d="m 201.58,238.32 h -0.88 l -2.57,-0.3 h -0.34 l -0.13,-0.1 h -0.34 l -0.48,-0.2 h -0.31 l -0.43,-0.1 -0.17,-0.1 -0.28,-0.1 -0.47,-0.1 -0.23,-0.1 -0.22,-0.1 -0.24,-0.1 -0.45,-0.2 -0.31,-0.1 -0.3,-0.1 -0.28,-0.1 -0.22,-0.1 -0.21,-0.2 -0.64,-0.3 -0.65,-0.39 -1.06,-0.6 -1.01,-0.8 -0.97,-0.8 -0.91,-0.8 -0.22,-0.2 -0.21,-0.3 -0.54,-0.6 -0.31,-0.3 -0.63,-0.79 -0.32,-0.5 -0.3,-0.4 -0.97,-1.6 -0.81,-1.8 -0.65,-1.79 -0.48,-1.8 h 1.65 l 0.51,1.9 1,2.39 1.31,2.2 h 7.34 l 0.11,0.2 h -1.82 l -1.17,0.2 -3.43,0.9 0.33,0.4 2.82,2.59 4.95,2.6 2.77,0.69 h 11.3 l -0.37,0.2 -3.74,1.2 z" /><path
       id="path106"
       style="fill:#b69624;fill-opacity:1;fill-rule:evenodd;stroke:none"
       d="m 204.93,236.22 h -4.14 v -8.18 h 1.57 v 8.08 h 2.69 z" /><path
       id="path108"
       style="fill:#b69624;fill-opacity:1;fill-rule:evenodd;stroke:none"
       d="m 205.05,236.12 h -2.69 l 2.31,-1.59 1.9,-1.8 1.53,-1.99 1.2,-2 -1.75,-0.3 -3.49,-0.4 h 9.21 l 2.13,0.5 1.24,0.4 h 1.85 l -0.06,0.1 h -7.54 l -1.12,1.99 -1.4,2 -1.73,1.8 z" /><path
       id="path110"
       style="fill:#b69624;fill-opacity:1;fill-rule:evenodd;stroke:none"
       d="m 209.71,236.52 h -5.14 l 2.82,-0.69 2.63,-1.1 4.55,-3.3 1.05,-1.19 -4.73,-1.2 h 7.54 l -0.22,0.4 -0.3,0.4 -0.33,0.5 -0.34,0.4 -0.37,0.49 -0.39,0.4 -0.39,0.5 -0.42,0.4 -2.95,2.4 z" /><path
       id="path112"
       style="fill:#b69624;fill-opacity:1;fill-rule:evenodd;stroke:none"
       d="m 204.57,236.52 h -6.16 l -2.05,-1.69 -1.71,-1.8 -1.4,-1.9 -1.11,-1.99 h 1.82 l 0.99,1.7 1.55,1.89 1.94,1.8 2.35,1.69 h 4.14 z" /></g></svg>